<svg width="160" height="160" viewBox="0 0 160 160" fill="none" xmlns="http://www.w3.org/2000/svg">
<path fill-rule="evenodd" clip-rule="evenodd" d="M157 80C157 122.526 122.526 157 80 157C37.4741 157 3 122.526 3 80C3 37.4741 37.4741 3 80 3C122.526 3 157 37.4741 157 80ZM160 80C160 124.183 124.183 160 80 160C35.8172 160 0 124.183 0 80C0 35.8172 35.8172 0 80 0C124.183 0 160 35.8172 160 80ZM67.3786 30.5224C72.9125 28.6708 78.8996 31.6559 80.7512 37.1898L90.3302 65.8184C92.1819 71.3523 89.1968 77.3395 83.6629 79.1911C78.129 81.0427 72.1418 78.0576 70.2902 72.5237L60.7112 43.8951C58.8596 38.3612 61.8446 32.3741 67.3786 30.5224ZM121.08 81.5352C124.593 77.2737 123.986 70.9712 119.724 67.4582L118.851 66.7381C114.589 63.2252 108.287 63.832 104.774 68.0936L84.8513 92.2614C81.3383 96.523 81.9452 102.826 86.2068 106.338L87.0803 107.059C91.3419 110.572 97.6444 109.965 101.157 105.703L121.08 81.5352ZM39.0113 115.158C37.4732 120.462 40.5263 126.009 45.8306 127.547L46.9179 127.862C52.2223 129.4 57.7692 126.347 59.3073 121.043L68.0302 90.9614C69.5684 85.6571 66.5153 80.1102 61.2109 78.572L60.1236 78.2567C54.8193 76.7186 49.2724 79.7717 47.7342 85.076L39.0113 115.158Z" fill="white"/>
</svg>
